PathFileType	4	(X/Y/Z)	./resultDataOpenSim/trcMotMarkerGrf/sub06/qtm-02-04.trc
DataRate	CameraRate	NumFrames	NumMarkers	Units	OrigDataRate	OrigDataStartFrame	OrigNumFrames
250.000000	250.000000	9	24	m	250.000000	308	492
Frame#	Time	L.Toe.Tip			R.Toe.Tip			L.Ankle.Lat			R.Ankle.Lat			L.Ankle.Med			R.Ankle.Med			L.Heel			R.Heel			L.Knee.Lat			R.Knee.Lat			L.Knee.Med			R.Knee.Med			L.Thigh.Upper			R.Thigh.Upper			L.ASIS			R.ASIS			V.Sacral			L.Acromium			R.Acromium			C7			L.Elbow			R.Elbow			L.Wrist.Lat			R.Wrist.Lat
		X1	Y1	Z1	X2	Y2	Z2	X3	Y3	Z3	X4	Y4	Z4	X5	Y5	Z5	X6	Y6	Z6	X7	Y7	Z7	X8	Y8	Z8	X9	Y9	Z9	X10	Y10	Z10	X11	Y11	Z11	X12	Y12	Z12	X13	Y13	Z13	X14	Y14	Z14	X15	Y15	Z15	X16	Y16	Z16	X17	Y17	Z17	X18	Y18	Z18	X19	Y19	Z19	X20	Y20	Z20	X21	Y21	Z21	X22	Y22	Z22	X23	Y23	Z23	X24	Y24	Z24

308	1.228	0.289015	0.074992271	-0.034881074	0.89643381	0.035737731	0.12014615	0.29654228	0.20536257	-0.064152199	0.76013365	0.059281036	0.15010758	0.31950365	0.20998114	0.018274014	0.77515884	0.082307752	0.063089399	0.25528503	0.26341944	-0.01217922	0.70326874	0.038445359	0.093727434	0.6328596	0.37499497	-0.10040288	0.809591	0.44387582	0.18114617	0.64105339	0.36186	0.019833825	0.77179678	0.43066927	0.059469116	0.6145903	0.76637974	-0.093818097	0.6742266	0.79541262	0.24465881	0.69849916	0.81942461	-0.063099089	0.74522269	0.8443511	0.17402853	0.53363808	0.90465008	0.087538363	0.65367983	1.3185442	-0.10370274	0.66396883	1.287548	0.25767529	0.58187593	1.345218	0.080457403	0.67542609	0.99469086	-0.17151951	0.55176626	0.99153448	0.30478641	0.9033775	0.89232261	-0.13417835	0.64563142	0.77668144	0.37024097
309	1.232	0.30389129	0.077171633	-0.034820986	0.89633179	0.035756935	0.12028722	0.31025516	0.20750859	-0.06383918	0.75999425	0.059286026	0.15018126	0.33307278	0.21238331	0.018550392	0.77519514	0.082483762	0.063279834	0.26813323	0.2652937	-0.011765018	0.70322179	0.038528783	0.093741822	0.64599492	0.37708888	-0.10080041	0.81107605	0.44366806	0.18187345	0.65457554	0.36426683	0.019503407	0.7733415	0.43099788	0.060209104	0.62114348	0.76854367	-0.093473675	0.6792572	0.79659128	0.24525091	0.70478225	0.82172708	-0.062831818	0.75091881	0.84571977	0.17495725	0.5400975	0.90666587	0.088358917	0.6591649	1.3206077	-0.10366661	0.67025353	1.2897997	0.25771227	0.58816442	1.3471244	0.080536065	0.67947089	0.99678954	-0.17104408	0.56028819	0.99272311	0.30561177	0.90592277	0.89113617	-0.13467376	0.658115	0.77927951	0.3702037
310	1.236	0.31900519	0.079186963	-0.034723465	0.896224	0.035774647	0.12042376	0.32408133	0.20945246	-0.063529084	0.75983334	0.059272083	0.15027313	0.34675087	0.21456846	0.018818929	0.77521622	0.082651537	0.063459766	0.28103711	0.26694387	-0.011339196	0.7031531	0.038622366	0.093778038	0.65909228	0.37934637	-0.10117832	0.81259645	0.44362521	0.18254629	0.6678218	0.36676032	0.019300405	0.77492578	0.43146027	0.060831501	0.62782627	0.77095667	-0.09320985	0.68398342	0.79769453	0.24579754	0.71114689	0.82407665	-0.06261213	0.75655041	0.84710405	0.17594505	0.54713855	0.90861838	0.089236129	0.6646303	1.3227005	-0.10363192	0.67650593	1.2920871	0.25773887	0.59434645	1.3490883	0.080677224	0.68348652	0.99890952	-0.17061983	0.56872643	0.9939629	0.30643201	0.90834048	0.88999196	-0.13522144	0.67062405	0.7820261	0.37010872
311	1.24	0.33434495	0.08103456	-0.034600535	0.89611159	0.035790101	0.12055501	0.33800625	0.21120042	-0.06322286	0.75967849	0.059235624	0.15037587	0.36052372	0.21654153	0.019070859	0.77521765	0.082820909	0.063639112	0.29406483	0.26835843	-0.011016732	0.70307294	0.03872111	0.093825401	0.67210899	0.38175647	-0.10152337	0.81419389	0.44373909	0.18321501	0.68091738	0.36932409	0.019172412	0.77646581	0.4320225	0.061373453	0.63455332	0.77351525	-0.092974096	0.68860078	0.79878	0.24638997	0.71756898	0.82647653	-0.062254296	0.76211432	0.84849053	0.17698751	0.55400704	0.91060351	0.089996901	0.67008683	1.324815	-0.10359317	0.6827313	1.2944014	0.2577573	0.60043672	1.3510982	0.080866466	0.68746463	1.0010451	-0.17024031	0.57707668	0.99525328	0.30723802	0.9106285	0.88888755	-0.13582482	0.68312796	0.78492708	0.36994818
312	1.244	0.34989541	0.082702463	-0.034470464	0.89599681	0.035805609	0.12067998	0.35201132	0.21275137	-0.062918073	0.75954219	0.059183688	0.15048299	0.37438719	0.21831557	0.019311454	0.77519891	0.082999715	0.0638251	0.30723047	0.2695304	-0.010865324	0.70299052	0.038821373	0.093880665	0.68502284	0.3843112	-0.10183918	0.81582431	0.44396354	0.1838873	0.69395697	0.37194842	0.01907844	0.77791865	0.43265224	0.061857315	0.64120563	0.77605972	-0.09264114	0.69323171	0.79988592	0.24706019	0.72398619	0.82888571	-0.061672814	0.76761158	0.84987531	0.17807875	0.5603665	0.91263351	0.090559099	0.67553973	1.326944	-0.10354581	0.68893317	1.2967315	0.25776898	0.60647723	1.3531249	0.081066504	0.69139709	1.0031907	-0.16989904	0.58535289	0.99659115	0.30803244	0.91279072	0.8878121	-0.13647916	0.69559586	0.78797921	0.36971032
313	1.248	0.36564534	0.084180244	-0.034346861	0.89588567	0.035823381	0.12079666	0.36608081	0.21409888	-0.062612767	0.75942548	0.059130602	0.15058981	0.38834684	0.21990131	0.019553892	0.77516286	0.083193107	0.064021869	0.32049478	0.27044272	-0.010832014	0.70291396	0.038923205	0.093946084	0.69786002	0.38700095	-0.10213817	0.81737869	0.44423384	0.18452819	0.7069671	0.37462776	0.019005547	0.77923695	0.43332092	0.06230344	0.64772032	0.77852536	-0.092118308	0.69783606	0.80099834	0.24772705	0.73031807	0.83122791	-0.06101571	0.77304792	0.8512657	0.17920592	0.56635604	0.91466143	0.090953696	0.6809933	1.3290772	-0.10348664	0.6951145	1.2990697	0.25777529	0.61249726	1.3551397	0.081254476	0.6952758	1.0053407	-0.16958952	0.59357238	0.99797144	0.3088225	0.91483876	0.88675487	-0.13717112	0.70801543	0.79117261	0.36939047
314	1.252	0.38159106	0.08546571	-0.03423279	0.89578765	0.035842854	0.12090218	0.38021014	0.21523717	-0.062306455	0.75932451	0.059094522	0.15069348	0.40242299	0.22128623	0.019810547	0.77511584	0.083402272	0.064229559	0.33380285	0.2710685	-0.010774852	0.70285098	0.039029653	0.094021599	0.71062789	0.38980519	-0.10238905	0.8187681	0.44449173	0.18509232	0.71993938	0.37736085	0.018960371	0.78037023	0.43400457	0.062726553	0.65414817	0.7809266	-0.091472691	0.70236744	0.80210209	0.24832311	0.73651154	0.83344364	-0.060528818	0.77843826	0.85267859	0.18035434	0.57221342	0.91664825	0.091257472	0.68645683	1.3312005	-0.10341121	0.70128143	1.3014133	0.25777934	0.61850522	1.3571204	0.081425442	0.69909266	1.0074896	-0.16930529	0.60174532	0.99939053	0.30961207	0.91678799	0.88571478	-0.13788963	0.72039697	0.79450168	0.36900095
315	1.256	0.39773102	0.086563949	-0.034130784	0.89571038	0.035861571	0.12099357	0.39440255	0.21616585	-0.061997002	0.75922572	0.059095248	0.15079717	0.41664096	0.2224358	0.020086338	0.77506873	0.08362314	0.064442063	0.34712104	0.27138773	-0.010563005	0.70280589	0.03914402	0.094103671	0.72329516	0.39269733	-0.10253878	0.81995203	0.44468842	0.18553896	0.73286661	0.38015187	0.018951797	0.78141819	0.43467226	0.063084472	0.66063319	0.78328352	-0.090913683	0.70683604	0.80320005	0.24883869	0.74258284	0.83553511	-0.060310464	0.78381166	0.85413883	0.18151984	0.57807346	0.91858313	0.091521762	0.69194445	1.3333002	-0.10331216	0.7074405	1.3037577	0.2577828	0.6244981	1.3590596	0.081582466	0.70283975	1.0096317	-0.16903995	0.60987319	1.0008485	0.31040342	0.9186544	0.88470016	-0.13863214	0.73276704	0.7979661	0.36857023
316	1.26	0.41405759	0.087484553	-0.034054833	0.89565391	0.035877942	0.12106836	0.40866018	0.21689069	-0.061678661	0.75909868	0.059149885	0.15091359	0.43099615	0.2233303	0.020374103	0.77503531	0.083847379	0.064645138	0.36044785	0.27140136	-0.01015993	0.70277369	0.039268245	0.094192223	0.73586754	0.39566196	-0.10258395	0.82091175	0.44479623	0.18583274	0.74575355	0.38301103	0.018982454	0.78258707	0.43528581	0.063312518	0.66730372	0.78560214	-0.090628017	0.71126227	0.80429284	0.24928246	0.7486359	0.83756356	-0.060229244	0.78920546	0.85567346	0.18270968	0.58395982	0.92047501	0.091761805	0.69746819	1.3353687	-0.10318352	0.71359355	1.3060928	0.25778351	0.63047558	1.3609661	0.081729051	0.7065095	1.0117614	-0.16878727	0.61795433	1.002348	0.31120101	0.92044624	0.88371704	-0.13939957	0.74514731	0.80156456	0.3681223
